<svg xmlns="http://www.w3.org/2000/svg" xmlns:xlink="http://www.w3.org/1999/xlink" width="857pt" height="1006pt" viewBox="0 0 856.82 1006.4"><g id="graph0" class="graph" transform="scale(1 1) rotate(0) translate(4 1002.4)"><title>product_category</title><polygon fill="#fff" stroke="none" points="-4 4 -4 -1002.4 852.82 -1002.4 852.82 4 -4 4"/><g id="node1" class="node"><title>product_category</title><polygon fill="#efefef" stroke="none" points="553.44 -573.8 553.44 -609.4 762.64 -609.4 762.64 -573.8 553.44 -573.8"/><polygon fill="none" stroke="#000" points="553.44 -573.8 553.44 -609.4 762.64 -609.4 762.64 -573.8 553.44 -573.8"/><text x="560.44" y="-587.2" font-family="Arial Bold" font-size="18" text-anchor="start">product_category</text><text x="717.5" y="-587.2" fill="#666" font-family="Arial" font-size="14" text-anchor="start">[table]</text><polygon fill="none" stroke="#000" points="553.44 -543 553.44 -573.8 762.64 -573.8 762.64 -543 553.44 -543"/><text x="560.44" y="-555.2" font-family="Arial" font-size="14" text-anchor="start">id</text><text x="575.22" y="-555.2" fill="#666" font-family="Arial" font-size="14" text-anchor="start">[TEXT]</text><polygon fill="none" stroke="#000" points="553.44 -512.2 553.44 -543 762.64 -543 762.64 -512.2 553.44 -512.2"/><text x="560.44" y="-524.4" font-family="Arial" font-size="14" text-anchor="start">created_at</text><text x="630.48" y="-524.4" fill="#666" font-family="Arial" font-size="14" text-anchor="start">[INTEGER]</text><polygon fill="none" stroke="#000" points="553.44 -481.4 553.44 -512.2 762.64 -512.2 762.64 -481.4 553.44 -481.4"/><text x="560.44" y="-493.6" font-family="Arial" font-size="14" text-anchor="start">updated_at</text><text x="634.4" y="-493.6" fill="#666" font-family="Arial" font-size="14" text-anchor="start">[INTEGER]</text><polygon fill="none" stroke="#000" points="553.44 -450.6 553.44 -481.4 762.64 -481.4 762.64 -450.6 553.44 -450.6"/><text x="560.44" y="-462.8" font-family="Arial" font-size="14" text-anchor="start">deleted_at</text><text x="629.72" y="-462.8" fill="#666" font-family="Arial" font-size="14" text-anchor="start">[INTEGER]</text><polygon fill="none" stroke="#000" points="553.44 -419.8 553.44 -450.6 762.64 -450.6 762.64 -419.8 553.44 -419.8"/><text x="560.44" y="-432" font-family="Arial" font-size="14" text-anchor="start">name</text><text x="599.35" y="-432" fill="#666" font-family="Arial" font-size="14" text-anchor="start">[TEXT]</text><polygon fill="none" stroke="#000" points="553.44 -389 553.44 -419.8 762.64 -419.8 762.64 -389 553.44 -389"/><text x="560.44" y="-401.2" font-family="Arial" font-size="14" text-anchor="start">product_id</text><text x="629.71" y="-401.2" fill="#666" font-family="Arial" font-size="14" text-anchor="start">[TEXT]</text><polygon fill="none" stroke="#000" stroke-width="3" points="551.94 -387.5 551.94 -610.9 764.14 -610.9 764.14 -387.5 551.94 -387.5"/></g><g id="node3" class="node"><title>product</title><polygon fill="#efefef" stroke="none" points="579.06 -228 579.06 -263.6 737.02 -263.6 737.02 -228 579.06 -228"/><polygon fill="none" stroke="#000" points="579.06 -228 579.06 -263.6 737.02 -263.6 737.02 -228 579.06 -228"/><text x="595.92" y="-241.4" font-family="Arial Bold" font-size="18" text-anchor="start">product</text><text x="682.02" y="-241.4" fill="#666" font-family="Arial" font-size="14" text-anchor="start">[table]</text><polygon fill="none" stroke="#000" points="579.06 -197.2 579.06 -228 737.02 -228 737.02 -197.2 579.06 -197.2"/><text x="586.06" y="-209.4" font-family="Arial" font-size="14" text-anchor="start">id</text><text x="600.84" y="-209.4" fill="#666" font-family="Arial" font-size="14" text-anchor="start">[TEXT]</text><polygon fill="none" stroke="#000" points="579.06 -166.4 579.06 -197.2 737.02 -197.2 737.02 -166.4 579.06 -166.4"/><text x="586.06" y="-178.6" font-family="Arial" font-size="14" text-anchor="start">created_at</text><text x="656.1" y="-178.6" fill="#666" font-family="Arial" font-size="14" text-anchor="start">[INTEGER]</text><polygon fill="none" stroke="#000" points="579.06 -135.6 579.06 -166.4 737.02 -166.4 737.02 -135.6 579.06 -135.6"/><text x="586.06" y="-147.8" font-family="Arial" font-size="14" text-anchor="start">updated_at</text><text x="660.01" y="-147.8" fill="#666" font-family="Arial" font-size="14" text-anchor="start">[INTEGER]</text><polygon fill="none" stroke="#000" points="579.06 -104.8 579.06 -135.6 737.02 -135.6 737.02 -104.8 579.06 -104.8"/><text x="586.06" y="-117" font-family="Arial" font-size="14" text-anchor="start">deleted_at</text><text x="655.34" y="-117" fill="#666" font-family="Arial" font-size="14" text-anchor="start">[INTEGER]</text><polygon fill="none" stroke="#000" points="579.06 -74 579.06 -104.8 737.02 -104.8 737.02 -74 579.06 -74"/><text x="586.06" y="-86.2" font-family="Arial" font-size="14" text-anchor="start">name</text><text x="624.97" y="-86.2" fill="#666" font-family="Arial" font-size="14" text-anchor="start">[TEXT]</text><polygon fill="none" stroke="#000" points="579.06 -43.2 579.06 -74 737.02 -74 737.02 -43.2 579.06 -43.2"/><text x="586.06" y="-55.4" font-family="Arial" font-size="14" text-anchor="start">code</text><text x="620.3" y="-55.4" fill="#666" font-family="Arial" font-size="14" text-anchor="start">[INTEGER]</text></g><g id="edge2" class="edge"><title>product_category:product_id-&gt;product:id</title><path fill="none" stroke="#000" d="M658.99,-377.83C666.69,-339.64 719.25,-349.89 737.02,-306.8 752.98,-268.09 779.89,-212.6 738.02,-212.6"/><polygon fill="#000" stroke="#000" points="659 -377.71 653.59 -387.25 658.5 -383.02 658.1 -387.33 658.1 -387.33 658.1 -387.33 658.5 -383.02 662.55 -388.08 659 -377.71"/><text x="94.83" y="-398" font-family="Arial" font-size="10" text-anchor="start">FOREIGN KEY (product_id) REFERENCES product (id) ON UPDATE NO ACTION ON DELETE NO ACTION MATCH NONE</text></g><g id="node2" class="node"><title>workspace_product_category</title><polygon fill="#efefef" stroke="none" points="510.45 -919.6 510.45 -955.2 805.62 -955.2 805.62 -919.6 510.45 -919.6"/><polygon fill="none" stroke="#000" points="510.45 -919.6 510.45 -955.2 805.62 -955.2 805.62 -919.6 510.45 -919.6"/><text x="517.45" y="-933" font-family="Arial Bold" font-size="18" text-anchor="start">workspace_product_category</text><text x="760.48" y="-933" fill="#666" font-family="Arial" font-size="14" text-anchor="start">[table]</text><polygon fill="none" stroke="#000" points="510.45 -888.8 510.45 -919.6 805.62 -919.6 805.62 -888.8 510.45 -888.8"/><text x="517.45" y="-901" font-family="Arial" font-size="14" text-anchor="start">id</text><text x="532.24" y="-901" fill="#666" font-family="Arial" font-size="14" text-anchor="start">[TEXT]</text><polygon fill="none" stroke="#000" points="510.45 -858 510.45 -888.8 805.62 -888.8 805.62 -858 510.45 -858"/><text x="517.45" y="-870.2" font-family="Arial" font-size="14" text-anchor="start">created_at</text><text x="587.5" y="-870.2" fill="#666" font-family="Arial" font-size="14" text-anchor="start">[INTEGER]</text><polygon fill="none" stroke="#000" points="510.45 -827.2 510.45 -858 805.62 -858 805.62 -827.2 510.45 -827.2"/><text x="517.45" y="-839.4" font-family="Arial" font-size="14" text-anchor="start">updated_at</text><text x="591.41" y="-839.4" fill="#666" font-family="Arial" font-size="14" text-anchor="start">[INTEGER]</text><polygon fill="none" stroke="#000" points="510.45 -796.4 510.45 -827.2 805.62 -827.2 805.62 -796.4 510.45 -796.4"/><text x="517.45" y="-808.6" font-family="Arial" font-size="14" text-anchor="start">deleted_at</text><text x="586.74" y="-808.6" fill="#666" font-family="Arial" font-size="14" text-anchor="start">[INTEGER]</text><polygon fill="none" stroke="#000" points="510.45 -765.6 510.45 -796.4 805.62 -796.4 805.62 -765.6 510.45 -765.6"/><text x="517.45" y="-777.8" font-family="Arial" font-size="14" text-anchor="start">workspace_id</text><text x="606.94" y="-777.8" fill="#666" font-family="Arial" font-size="14" text-anchor="start">[TEXT]</text><polygon fill="none" stroke="#000" points="510.45 -734.8 510.45 -765.6 805.62 -765.6 805.62 -734.8 510.45 -734.8"/><text x="517.45" y="-747" font-family="Arial" font-size="14" text-anchor="start">product_category_id</text><text x="648.21" y="-747" fill="#666" font-family="Arial" font-size="14" text-anchor="start">[TEXT]</text></g><g id="edge1" class="edge"><title>workspace_product_category:product_category_id-&gt;product_category:id</title><path fill="none" stroke="#000" d="M658.98,-723.65C667.92,-679.48 738.07,-704.03 762.64,-655.6 782.19,-617.07 806.84,-558.4 763.64,-558.4"/><polygon fill="#000" stroke="#000" points="658.99 -723.51 653.59 -733.05 658.5 -728.82 658.1 -733.13 658.1 -733.13 658.1 -733.13 658.5 -728.82 662.55 -733.88 658.99 -723.51"/><text x="7" y="-743.8" font-family="Arial" font-size="10" text-anchor="start">FOREIGN KEY (product_category_id) REFERENCES product_category (id) ON UPDATE NO ACTION ON DELETE NO ACTION MATCH NONE</text></g></g></svg>